<svg width="9" height="7" viewBox="0 0 9 7" fill="none" xmlns="http://www.w3.org/2000/svg">
<path d="M0.431818 7V4.95454C0.431818 4.39773 0.545455 3.83807 0.772727 3.27557C1 2.71307 1.28693 2.19318 1.63352 1.71591C1.98011 1.23864 2.32955 0.852273 2.68182 0.556818L4.625 1.54545C4.32955 2.03977 4.09943 2.55682 3.93466 3.09659C3.77557 3.63636 3.69886 4.25568 3.70455 4.95454V7H0.431818ZM4.69318 7V4.95454C4.69318 4.39773 4.80682 3.83807 5.03409 3.27557C5.26136 2.71307 5.5483 2.19318 5.89489 1.71591C6.24148 1.23864 6.59091 0.852273 6.94318 0.556818L8.88636 1.54545C8.59091 2.03977 8.3608 2.55682 8.19602 3.09659C8.03693 3.63636 7.96023 4.25568 7.96591 4.95454V7H4.69318Z" fill="#FEC232"/>
</svg>
