<svg width="10" height="7" viewBox="0 0 10 7" fill="none" xmlns="http://www.w3.org/2000/svg">
<path d="M5.07955 0.545454V2.59091C5.07955 3.14773 4.96591 3.70455 4.73864 4.26136C4.51705 4.8125 4.23295 5.3267 3.88636 5.80398C3.54545 6.27557 3.19318 6.67045 2.82955 6.98864L0.886364 6C1.125 5.59091 1.33807 5.11648 1.52557 4.5767C1.71307 4.03693 1.80682 3.375 1.80682 2.59091V0.545454H5.07955ZM9.30682 0.545454V2.59091C9.30682 3.14773 9.19318 3.70455 8.96591 4.26136C8.74432 4.8125 8.46023 5.3267 8.11364 5.80398C7.77273 6.27557 7.42045 6.67045 7.05682 6.98864L5.11364 6C5.35227 5.59091 5.56534 5.11648 5.75284 4.5767C5.94034 4.03693 6.03409 3.375 6.03409 2.59091V0.545454H9.30682Z" fill="#FEC232"/>
</svg>
