<svg width="75" height="27" viewBox="0 0 75 27" fill="none" xmlns="http://www.w3.org/2000/svg">
<path d="M0.6875 27V0.818181H11.9886C13.9318 0.818181 15.6321 1.17187 17.0895 1.87926C18.5469 2.58665 19.6804 3.60511 20.4901 4.93466C21.2997 6.2642 21.7045 7.85795 21.7045 9.71591C21.7045 11.5909 21.2869 13.1719 20.4517 14.4588C19.625 15.7457 18.4616 16.7173 16.9616 17.3736C15.4702 18.0298 13.7273 18.358 11.733 18.358H4.98295V12.8352H10.3011C11.1364 12.8352 11.848 12.733 12.4361 12.5284C13.0327 12.3153 13.4886 11.9787 13.804 11.5185C14.1278 11.0582 14.2898 10.4574 14.2898 9.71591C14.2898 8.96591 14.1278 8.35653 13.804 7.88778C13.4886 7.41051 13.0327 7.06108 12.4361 6.83949C11.848 6.60937 11.1364 6.49432 10.3011 6.49432H7.79545V27H0.6875ZM16.0284 14.983L22.5739 27H14.8523L8.46023 14.983H16.0284ZM31.5355 27H23.8651L32.5071 0.818181H42.223L50.8651 27H43.1946L37.4673 8.02841H37.2628L31.5355 27ZM30.1037 16.6705H44.5241V21.9886H30.1037V16.6705ZM53.3867 27V0.818181H64.739C66.7333 0.818181 68.408 1.08665 69.7631 1.62358C71.1268 2.16051 72.1538 2.91903 72.8441 3.89915C73.543 4.87926 73.8924 6.03409 73.8924 7.36364C73.8924 8.3267 73.6793 9.20454 73.2532 9.99716C72.8356 10.7898 72.2475 11.4545 71.489 11.9915C70.7305 12.5199 69.8441 12.8864 68.8299 13.0909V13.3466C69.9549 13.3892 70.9776 13.6747 71.8981 14.2031C72.8185 14.723 73.5515 15.4432 74.0969 16.3636C74.6424 17.2756 74.9151 18.3494 74.9151 19.5852C74.9151 21.017 74.5401 22.2912 73.7901 23.4077C73.0487 24.5241 71.9918 25.402 70.6197 26.0412C69.2475 26.6804 67.6112 27 65.7106 27H53.3867ZM60.4947 21.3239H63.8185C65.0117 21.3239 65.9066 21.1023 66.5032 20.6591C67.0998 20.2074 67.3981 19.5426 67.3981 18.6648C67.3981 18.0511 67.2575 17.5312 66.9762 17.1051C66.695 16.679 66.2944 16.3551 65.7745 16.1335C65.2631 15.9119 64.6452 15.8011 63.9208 15.8011H60.4947V21.3239ZM60.4947 11.4034H63.4094C64.0316 11.4034 64.5813 11.3054 65.0586 11.1094C65.5359 10.9134 65.9066 10.6321 66.1708 10.2656C66.4435 9.89062 66.5799 9.43466 66.5799 8.89773C66.5799 8.08807 66.2901 7.47017 65.7106 7.04403C65.131 6.60938 64.3981 6.39205 63.5117 6.39205H60.4947V11.4034Z" fill="black"/>
</svg>
